<?xml version="1.0" encoding="utf-8"?>
<!-- Generator: Adobe Illustrator 19.2.1, SVG Export Plug-In . SVG Version: 6.00 Build 0)  -->
<svg xmlns="http://www.w3.org/2000/svg" xmlns:xlink="http://www.w3.org/1999/xlink" version="1.1" id="Layer" x="0px" y="0px" width="512" height="512" viewBox="0 0 64 64" enable-background="new 0 0 64 64" xml:space="preserve">
<path fill="#CCE4FF" d="M50,10h-8c2.21,0,4,1.79,4,4v4c4.42,0,8,3.58,8,8V14C54,11.79,52.21,10,50,10z"/>
<path fill="#CCE4FF" d="M32,38h2c2.21,0,4-1.79,4-4v-4H26v4c0,2.21,1.79,4,4,4H32z"/>
<path fill="#CCE4FF" d="M18,18v-4c0-2.21,1.79-4,4-4h-8c-2.21,0-4,1.79-4,4v12C10,21.58,13.58,18,18,18z"/>
<path fill="#007AFF" d="M50,9h-8c-2.757,0-5,2.243-5,5v3H27v-3c0-2.757-2.243-5-5-5h-8c-2.757,0-5,2.243-5,5v12v20  c0,4.962,4.037,9,9,9h28c4.963,0,9-4.038,9-9V26V14C55,11.243,52.757,9,50,9z M39,14c0-1.654,1.346-3,3-3s3,1.346,3,3v3h-6V14z   M25,14v3h-6v-3c0-1.654,1.346-3,3-3S25,12.346,25,14z M11,14c0-1.654,1.346-3,3-3h4.026C17.391,11.838,17,12.87,17,14v3.059  c-2.417,0.269-4.547,1.498-6,3.297V14z M53,46c0,3.86-3.141,7-7,7H18c-3.859,0-7-3.14-7-7V26c0-3.86,3.141-7,7-7h28  c3.859,0,7,3.14,7,7V46z M47,17.059V14c0-1.13-0.391-2.162-1.026-3H50c1.654,0,3,1.346,3,3v6.356  C51.547,18.557,49.417,17.328,47,17.059z"/>
<path fill="#007AFF" d="M42,25c-2.414,0-4.434,1.721-4.899,4H26.899c-0.465-2.279-2.484-4-4.899-4c-2.757,0-5,2.243-5,5v4  c0,2.757,2.243,5,5,5c1.641,0,3.088-0.806,4-2.031C26.912,38.194,28.359,39,30,39h1v6h-9c-0.553,0-1,0.448-1,1s0.447,1,1,1h20  c0.553,0,1-0.448,1-1s-0.447-1-1-1h-9v-6h1c1.641,0,3.088-0.806,4-2.031C38.912,38.194,40.359,39,42,39c2.757,0,5-2.243,5-5v-4  C47,27.243,44.757,25,42,25z M22,37c-1.654,0-3-1.346-3-3v-4c0-1.654,1.346-3,3-3s3,1.346,3,3v4C25,35.654,23.654,37,22,37z M34,37  h-4c-1.654,0-3-1.346-3-3v-3h10v3C37,35.654,35.654,37,34,37z M45,34c0,1.654-1.346,3-3,3s-3-1.346-3-3v-4c0-1.654,1.346-3,3-3  s3,1.346,3,3V34z"/>
</svg>
