<?xml version="1.0" encoding="UTF-8" standalone="no"?>
<!DOCTYPE svg PUBLIC "-//W3C//DTD SVG 1.1//EN" "http://www.w3.org/Graphics/SVG/1.1/DTD/svg11.dtd">
<svg version="1.1" xmlns="http://www.w3.org/2000/svg" xmlns:xlink="http://www.w3.org/1999/xlink" preserveAspectRatio="xMidYMid meet" viewBox="0 0 1920 150" width="1920" height="150"><defs><path d="M1919.92 83.74L1919.69 84.46L1919.3 85.17L1918.76 85.85L1918.06 86.52L1917.21 87.16L1916.21 87.79L1915.06 88.4L1913.75 88.99L1912.29 89.56L1910.67 90.12L1908.9 90.65L1906.98 91.17L1904.9 91.66L1902.67 92.14L1900.29 92.6L1897.75 93.04L1895.06 93.46L1892.21 93.87L1889.22 94.25L1886.06 94.62L1882.76 94.96L1879.3 95.29L1875.69 95.6L1871.92 95.89L1868 96.16L1863.93 96.42L1859.7 96.65L1855.32 96.87L1850.79 97.06L1846.1 97.24L1841.26 97.4L1836.26 97.54L1831.11 97.66L1825.81 97.77L1820.36 97.85L1814.75 97.92L1808.99 97.96L1803.07 97.99L1797 98L1796.73 97.94L1795.94 97.77L1794.64 97.48L1792.85 97.1L1790.59 96.62L1787.87 96.05L1784.73 95.39L1781.16 94.65L1777.2 93.85L1772.86 92.97L1768.16 92.04L1763.11 91.05L1757.74 90.01L1752.06 88.93L1746.09 87.82L1739.85 86.67L1733.35 85.5L1726.63 84.32L1719.68 83.12L1712.54 81.91L1705.22 80.7L1697.73 79.5L1690.11 78.32L1682.35 77.15L1674.49 76L1666.54 74.89L1658.52 73.81L1650.44 72.77L1642.33 71.78L1634.2 70.85L1626.08 69.97L1617.97 69.17L1609.9 68.43L1601.89 67.77L1593.95 67.2L1586.1 66.72L1578.37 66.34L1570.76 66.05L1563.3 65.88L1556 65.82L1555.79 65.85L1555.18 65.95L1554.18 66.1L1552.8 66.31L1551.05 66.57L1548.93 66.89L1546.48 67.24L1543.68 67.65L1540.56 68.09L1537.12 68.56L1533.39 69.07L1529.36 69.61L1525.05 70.18L1520.47 70.76L1515.64 71.37L1510.56 72L1505.24 72.64L1499.7 73.28L1493.95 73.94L1488 74.59L1481.86 75.25L1475.53 75.91L1469.04 76.55L1462.4 77.19L1455.61 77.82L1448.68 78.43L1441.64 79.01L1434.48 79.58L1427.22 80.12L1419.87 80.63L1412.45 81.1L1404.96 81.54L1397.41 81.95L1389.82 82.3L1382.2 82.62L1374.56 82.88L1366.91 83.09L1359.25 83.24L1351.62 83.34L1344 83.37L1343.66 83.29L1342.67 83.07L1341.03 82.71L1338.76 82.22L1335.88 81.61L1332.42 80.88L1328.38 80.04L1323.78 79.1L1318.65 78.08L1313 76.96L1306.84 75.77L1300.2 74.51L1293.08 73.19L1285.52 71.82L1277.53 70.39L1269.11 68.94L1260.3 67.45L1251.11 65.93L1241.56 64.4L1231.66 62.87L1221.43 61.33L1210.89 59.81L1200.06 58.29L1188.95 56.8L1177.58 55.35L1165.98 53.93L1154.15 52.55L1142.11 51.23L1129.89 49.98L1117.49 48.79L1104.94 47.68L1092.26 46.65L1079.46 45.72L1066.55 44.88L1053.57 44.16L1040.51 43.55L1027.41 43.06L1014.28 42.71L1001.14 42.49L988 42.42L975.09 42.49L962.64 42.68L950.63 43L939.06 43.42L927.89 43.95L917.11 44.58L906.71 45.3L896.67 46.11L886.96 46.99L877.58 47.95L868.5 48.98L859.71 50.06L851.18 51.19L842.91 52.37L834.87 53.59L827.04 54.85L819.42 56.13L811.97 57.42L804.69 58.74L797.55 60.05L790.53 61.37L783.63 62.68L776.82 63.98L770.09 65.25L763.41 66.5L756.76 67.72L750.15 68.89L743.53 70.02L736.9 71.1L730.24 72.11L723.53 73.06L716.75 73.94L709.89 74.73L702.92 75.44L695.84 76.06L688.62 76.58L681.24 76.99L673.69 77.29L665.95 77.47L658 77.52L650.28 77.46L642.88 77.32L635.78 77.09L628.97 76.79L622.42 76.41L616.13 75.96L610.08 75.45L604.26 74.88L598.65 74.25L593.23 73.57L588 72.85L582.93 72.08L578.01 71.28L573.23 70.45L568.57 69.59L564.02 68.7L559.56 67.8L555.17 66.89L550.85 65.96L546.57 65.03L542.33 64.11L538.1 63.18L533.88 62.27L529.64 61.37L525.38 60.49L521.07 59.63L516.71 58.8L512.28 58L507.75 57.24L503.13 56.52L498.39 55.85L493.51 55.23L488.5 54.67L483.31 54.16L477.96 53.72L472.41 53.35L466.65 53.06L460.68 52.84L454.46 52.71L448 52.66L441.35 52.72L434.58 52.89L427.71 53.17L420.74 53.56L413.69 54.04L406.55 54.61L399.34 55.27L392.06 56L384.72 56.81L377.33 57.68L369.9 58.61L362.43 59.6L354.93 60.63L347.41 61.71L339.88 62.83L332.35 63.97L324.82 65.14L317.29 66.32L309.79 67.52L302.31 68.73L294.87 69.93L287.46 71.13L280.11 72.32L272.81 73.48L265.58 74.63L258.42 75.74L251.33 76.82L244.34 77.86L237.44 78.85L230.64 79.78L223.95 80.66L217.38 81.47L210.94 82.2L204.63 82.86L198.46 83.43L192.44 83.92L186.58 84.3L180.88 84.59L175.35 84.77L170 84.83L159.6 84.79L149.62 84.66L140.04 84.43L130.87 84.13L122.08 83.74L113.68 83.29L105.66 82.76L98 82.17L90.71 81.52L83.76 80.81L77.16 80.06L70.9 79.26L64.96 78.42L59.35 77.55L54.05 76.65L49.05 75.72L44.35 74.77L39.94 73.81L35.81 72.84L31.96 71.86L28.36 70.88L25.03 69.91L21.94 68.95L19.1 68L16.49 67.07L14.11 66.17L11.94 65.29L9.99 64.45L8.23 63.65L6.67 62.89L5.3 62.18L4.1 61.53L3.07 60.93L2.21 60.4L1.5 59.93L0.94 59.54L0.52 59.23L0.22 59L0.05 58.86L0 58.81L0 0L1920 0L1920 83L1919.92 83.74Z" id="h1euWDPWKi"></path></defs><g><g><g><use xlink:href="#h1euWDPWKi" opacity="1" fill="#faebd7" fill-opacity="1"></use><g><use xlink:href="#h1euWDPWKi" opacity="1" fill-opacity="0" stroke="#000000" stroke-width="1" stroke-opacity="0"></use></g></g></g></g></svg>